<svg width="199" height="70" viewBox="0 0 199 70" fill="none" xmlns="http://www.w3.org/2000/svg">
<g>
<path d="M4.31115 45.1015L8.55064 40.6729L5.63356 35.312C5.52984 35.1307 5.47798 34.9495 5.47798 34.7682C5.47798 34.5351 5.5817 34.3279 5.78914 34.1466C6.0225 33.9394 6.25587 33.8358 6.48924 33.8358C6.67074 33.8358 6.83929 33.8747 6.99486 33.9524L9.05626 34.9624V2.13659C9.05626 0.815789 9.71747 0.155388 11.0399 0.155388C11.351 0.155388 11.5974 0.207185 11.7789 0.310777C13.931 1.01003 16.2776 4.29908 18.8187 10.1779C19.7522 12.4311 20.7505 15.0727 21.8136 18.1028C22.8767 21.1069 24.0176 24.5384 25.2363 28.3972C26.4031 24.5384 27.5181 21.1069 28.5812 18.1028C29.6703 15.0727 30.6945 12.4311 31.6539 10.1779C34.1431 4.32498 36.4897 1.03592 38.6937 0.310777C38.8234 0.207185 39.0697 0.155388 39.4327 0.155388C40.7551 0.155388 41.4163 0.815789 41.4163 2.13659V60.0576C41.4163 61.3526 40.7551 62 39.4327 62C38.0844 62 37.4102 61.3526 37.4102 60.0576V7.18672C37.0991 7.78237 36.775 8.45572 36.4379 9.20677C36.1008 9.95781 35.7248 10.7995 35.3099 11.7318C34.0912 14.477 32.7948 17.8438 31.4205 21.8321C30.0462 25.8204 28.6201 30.4691 27.1421 35.7782C26.9865 36.3221 26.7402 36.6976 26.4031 36.9048C26.066 37.086 25.6382 37.1767 25.1196 37.1767C24.1862 37.1767 23.5768 36.7105 23.2916 35.7782C21.7358 30.5209 20.2838 25.8981 18.9354 21.9098C17.613 17.9215 16.3554 14.5288 15.1627 11.7318C14.7219 10.7477 14.32 9.88012 13.9569 9.12907C13.6199 8.35213 13.3087 7.70468 13.0235 7.18672V35.3509C13.0235 35.6617 12.9457 35.9595 12.7901 36.2444L16.6796 32.1654C16.9129 31.9323 17.1592 31.8158 17.4185 31.8158C17.6778 31.8158 17.8982 31.9453 18.0797 32.2043C18.2872 32.4373 18.3909 32.6704 18.3909 32.9035V33.0201L17.5352 39.0802L23.0582 41.7218C23.4472 41.9031 23.6416 42.175 23.6416 42.5376C23.6416 42.6671 23.6027 42.8354 23.525 43.0426C23.4212 43.3534 23.1879 43.5347 22.8249 43.5865L16.7962 44.6742L15.9406 50.7343C15.9146 51.0969 15.7979 51.33 15.5905 51.4336C15.409 51.5372 15.1627 51.589 14.8515 51.589C14.4366 51.5113 14.1773 51.317 14.0736 51.0063L13.0235 49.0251V60.0576C13.0235 61.3526 12.3623 62 11.0399 62C9.71747 62 9.05626 61.3526 9.05626 60.0576V46.0338L5.20572 46.7331C5.12794 46.759 5.01125 46.7719 4.85568 46.7719C4.38894 46.7719 4.11668 46.5 4.03889 45.9561C4.01296 45.9043 4 45.8137 4 45.6842C4 45.4511 4.10372 45.2569 4.31115 45.1015ZM11.5455 43.5865H11.7789C12.1159 43.5865 12.4012 43.7548 12.6345 44.0915L14.4237 47.3935L14.8904 43.7419C14.9682 43.2757 15.2405 42.9649 15.7072 42.8095L19.441 42.188L16.0961 40.5564C15.8368 40.4528 15.6683 40.3233 15.5905 40.1679C15.5127 39.9866 15.4738 39.7665 15.4738 39.5075L15.9795 35.7782L13.4124 38.4975C13.2309 38.7306 13.0105 38.8471 12.7512 38.8471C12.5956 38.8471 12.4271 38.7953 12.2456 38.6917L8.86179 37.0602L10.6509 40.3622C10.7287 40.5434 10.7676 40.7247 10.7676 40.906C10.7676 41.1391 10.6769 41.3463 10.4954 41.5276L7.85054 44.2469L11.5455 43.5865ZM5.90582 30.7281V2.6416C5.90582 2.20134 6.12622 1.9812 6.56703 1.9812C7.00783 1.9812 7.22823 2.20134 7.22823 2.6416V30.7281C7.22823 31.1683 7.00783 31.3885 6.56703 31.3885C6.12622 31.3885 5.90582 31.1683 5.90582 30.7281ZM5.90582 59.7857V48.9474C5.90582 48.5071 6.12622 48.287 6.56703 48.287C7.00783 48.287 7.22823 48.5071 7.22823 48.9474V59.7857C7.22823 60.226 7.00783 60.4461 6.56703 60.4461C6.12622 60.4461 5.90582 60.226 5.90582 59.7857ZM30.6815 0C31.3297 0 31.6539 0.336675 31.6539 1.01003C31.6539 1.68338 31.3297 2.02005 30.6815 2.02005C30.0073 2.02005 29.6703 1.68338 29.6703 1.01003C29.6703 0.336675 30.0073 0 30.6815 0ZM20.2189 52.3271C20.8931 52.3271 21.2302 52.6637 21.2302 53.3371C21.2302 53.9845 20.8931 54.3083 20.2189 54.3083C19.5707 54.3083 19.2466 53.9845 19.2466 53.3371C19.2466 52.6637 19.5707 52.3271 20.2189 52.3271Z" fill="#6B8BCA"/>
<path d="M79.4059 39.2909C79.4059 34.4439 79.3385 30.3374 79.2037 26.9715C77.3614 27.1959 75.9011 27.8691 74.8227 28.991C73.7892 30.0681 73.2724 31.2575 73.2724 32.559C73.2724 33.8156 73.7892 35.0946 74.8227 36.3961C75.9011 37.6976 77.4288 38.6625 79.4059 39.2909ZM84.0566 44.6764C84.2812 52.3956 84.3936 56.7938 84.3936 57.8709C84.3936 58.9031 84.124 59.7559 83.5848 60.429C83.0456 61.1022 82.5064 61.4388 81.9672 61.4388C81.4729 61.4388 81.0235 61.3266 80.6191 61.1022C79.4509 60.5188 78.8667 59.4641 78.8667 57.9382L79.3385 43.8686C75.9235 43.1505 73.25 41.7143 71.3178 39.5601C69.4755 37.361 68.5544 35.0273 68.5544 32.559C68.5544 30.0906 69.498 27.9139 71.3852 26.029C73.3174 24.0992 75.8561 22.9099 79.0015 22.4611L78.6645 14.4501C78.7544 12.8793 79.4733 11.8022 80.8213 11.2188C83.6072 10.0968 86.9099 9.53583 90.7293 9.53583C96.3011 9.53583 100.929 11.1515 104.614 14.3828C108.343 17.5692 110.208 21.3167 110.208 25.6251C110.208 29.9335 109.107 33.5463 106.905 36.4635C102.772 41.9836 96.1887 44.7437 87.157 44.7437C85.5394 44.7437 84.5059 44.7213 84.0566 44.6764ZM83.9218 26.9715C83.9667 28.1383 83.9892 32.5365 83.9892 40.166C84.2588 40.2109 84.8879 40.2333 85.8764 40.2333C91.4033 40.2333 95.9641 39.044 99.5588 36.6654C103.153 34.2868 104.951 30.674 104.951 25.827C104.951 22.506 103.535 19.7459 100.705 17.5468C97.9187 15.3028 94.5711 14.1808 90.6619 14.1808C87.9209 14.1808 85.6517 14.4726 83.8544 15.056C83.8544 16.6717 83.8993 19.14 83.9892 22.4611C86.7751 22.8201 89.2015 23.8299 91.2685 25.4905C93.3804 27.151 94.4363 28.834 94.4363 30.5394C94.4363 31.2575 94.2117 31.8184 93.7623 32.2224C93.3579 32.6263 92.8636 32.8282 92.2795 32.8282C91.6954 32.8282 91.0213 32.3794 90.2575 31.4818C87.7861 28.6096 85.6742 27.1061 83.9218 26.9715Z" fill="#FAA72A"/>
<path d="M122.637 12.9018L122.3 35.4537L122.637 58.0056C122.637 60.2495 121.784 61.3715 120.076 61.3715C118.369 61.3715 117.515 60.2495 117.515 58.0056L117.852 35.4537L117.515 12.9018C117.515 10.6578 118.369 9.53583 120.076 9.53583C121.784 9.53583 122.637 10.6578 122.637 12.9018Z" fill="#FAA72A"/>
<path d="M137.778 31.8858L137.239 46.696C137.239 49.7926 137.89 52.2834 139.193 54.1684C140.541 56.0533 142.361 56.9958 144.653 56.9958C146.944 56.9958 149.168 55.7167 151.325 53.1586C153.437 50.5556 154.942 47.6384 155.841 44.4071L155.639 29.7989C155.639 27.51 156.493 26.3656 158.2 26.3656C160.267 26.3656 161.301 27.9139 161.301 31.0106C161.301 34.0624 160.851 38.5279 159.953 44.4071C159.953 47.6833 160.177 50.4209 160.627 52.62C161.121 54.7742 161.727 55.986 162.446 56.2553C162.716 56.3899 163.031 56.4797 163.39 56.5245C163.794 56.5694 164.064 56.6367 164.199 56.7265C164.379 56.8163 164.468 56.9958 164.468 57.265C164.468 58.4768 164.087 59.4641 163.323 60.2271C162.604 60.99 161.683 61.3715 160.559 61.3715C157.728 61.3715 156.313 58.4992 156.313 52.7547C152.988 58.4992 148.809 61.3715 143.776 61.3715C140.182 61.3715 137.396 60.0476 135.419 57.3997C133.442 54.662 132.453 51.3858 132.453 47.5711L132.857 37.4059C132.857 36.0147 132.678 34.3541 132.318 32.4243C131.959 30.4496 131.779 29.2154 131.779 28.7218C131.779 28.2281 132.049 27.712 132.588 27.1734C133.172 26.6349 133.868 26.3656 134.677 26.3656C136.744 26.3656 137.778 28.2057 137.778 31.8858Z" fill="#FAA72A"/>
<path d="M195 51.0044C195 54.0113 193.742 56.5021 191.226 58.4768C188.754 60.4066 185.789 61.3715 182.329 61.3715C178.869 61.3715 175.836 60.5861 173.23 59.0153C170.668 57.3997 169.388 55.8065 169.388 54.2357C169.388 53.2035 169.815 52.5078 170.668 52.1488C171.522 51.7898 172.174 51.8346 172.623 52.2834C172.713 52.3283 173.611 53.2035 175.319 54.9089C175.813 55.3577 176.734 55.8289 178.082 56.3226C179.43 56.7714 180.621 56.9958 181.655 56.9958C184.171 56.9958 186.215 56.4797 187.788 55.4474C189.361 54.4152 190.147 52.9566 190.147 51.0717C190.147 48.6931 187.9 46.7408 183.407 45.2149C178.419 43.5095 175.229 42.0509 173.836 40.8392C173.162 40.2558 172.533 39.4928 171.949 38.5504C171.41 37.563 171.14 36.5308 171.14 35.4537C171.14 33.0302 172.241 30.9209 174.443 29.1257C176.689 27.2856 179.363 26.3656 182.463 26.3656C185.564 26.3656 188.08 26.9041 190.012 27.9813C191.944 29.0135 192.911 30.1803 192.911 31.4818C192.911 32.9629 192.124 33.7034 190.552 33.7034C189.922 33.7034 189.248 33.4565 188.53 32.9629C186.373 31.4818 184.283 30.7413 182.261 30.7413C180.284 30.7413 178.779 31.1901 177.745 32.0877C176.532 32.9404 175.926 33.9502 175.926 35.1171C175.926 36.2391 176.51 37.1591 177.678 37.8772C178.846 38.5952 180.756 39.4928 183.407 40.5699C186.058 41.6021 187.676 42.2529 188.26 42.5222C190.237 43.3749 191.855 44.5417 193.113 46.0228C194.371 47.5038 195 49.1643 195 51.0044Z" fill="#FAA72A"/>
<path d="M68.1806 33.6238C68.1806 32.0898 67.5434 30.6863 66.2689 29.4133C65.0271 28.1404 63.3114 27.5039 61.1219 27.5039C58.9324 27.5039 57.0043 28.1567 55.3377 29.4623C52.2658 31.845 50.2887 35.3864 49.4064 40.0864C51.89 40.7719 54.6841 41.1146 57.7886 41.1146C60.9258 41.1146 63.4421 40.4618 65.3375 39.1562C67.2329 37.8506 68.1806 36.0065 68.1806 33.6238ZM71.71 55.5086C71.71 56.651 70.5499 57.924 68.2296 59.3275C65.9094 60.731 63.4095 61.4327 60.7298 61.4327C58.0501 61.4327 55.7135 60.9268 53.7201 59.915C51.7266 58.9031 50.0927 57.5486 48.8182 55.8514C46.1712 52.3263 44.7496 48.1974 44.5535 43.4646C42.2006 42.7466 41.0242 41.5879 41.0242 39.9885C41.0242 39.3357 41.2039 38.8298 41.5634 38.4708C41.9555 38.0791 42.3967 37.8833 42.8869 37.8833C43.3771 37.8833 44.0634 38.0791 44.9457 38.4708C45.9588 34.0971 47.8541 30.4741 50.6319 27.6018C53.4423 24.6969 56.8736 23.2444 60.9258 23.2444C64.2264 23.2444 67.0368 24.2399 69.3571 26.231C71.71 28.222 72.8864 30.621 72.8864 33.428C72.8864 36.235 72.1675 38.5361 70.7296 40.3312C68.0172 43.6278 63.8016 45.2761 58.0827 45.2761C55.7298 45.2761 52.805 44.9497 49.3084 44.2969C49.6025 47.822 50.7626 50.8575 52.7887 53.4034C54.8475 55.9166 57.2821 57.1733 60.0925 57.1733C62.9356 57.1733 65.5826 56.3736 68.0336 54.7742C69.112 54.1867 69.8309 53.893 70.1904 53.893C70.5825 53.893 70.9257 54.0562 71.2198 54.3826C71.5466 54.6763 71.71 55.0517 71.71 55.5086Z" fill="#6B8BCA"/>
</g>
<defs>

</defs>
</svg>

